<svg width="192" height="160" viewBox="0 0 192 160" fill="none" xmlns="http://www.w3.org/2000/svg">
<path d="M128 154C128 157.314 130.686 160 134 160H186C189.314 160 192 157.314 192 154V102C192 98.6863 189.314 96 186 96H134C130.686 96 128 98.6863 128 102V154Z" fill="#FF5258"/>
<path d="M0 154C0 157.314 2.68629 160 6 160H57.5778C61.59 160 65.3368 157.995 67.5624 154.656L125.313 68.0308C127.065 65.4025 128 62.3144 128 59.1556V6C128 2.68629 125.314 0 122 0H70.4222C66.41 0 62.6632 2.00521 60.4376 5.3436L2.68719 91.9692C0.935008 94.5975 0 97.6856 0 100.844V154Z" fill="#FF5258"/>
</svg>
